<?xml version="1.0" standalone="no"?>
<!DOCTYPE svg PUBLIC "-//W3C//DTD SVG 20010904//EN"
 "http://www.w3.org/TR/2001/REC-SVG-20010904/DTD/svg10.dtd">
<svg version="1.0" xmlns="http://www.w3.org/2000/svg"
 width="1080.000000pt" height="1080.000000pt" viewBox="0 0 1080.000000 1080.000000"
 preserveAspectRatio="xMidYMid meet">

<g transform="translate(0.000000,1080.000000) scale(0.100000,-0.100000)"
fill="#000000" stroke="none">
<path d="M5440 6914 c0 -5 -7 -70 -15 -144 -12 -104 -19 -137 -32 -145 -9 -5
-30 -22 -47 -37 -22 -18 -53 -30 -96 -38 -82 -15 -142 -41 -197 -86 -25 -20
-65 -42 -91 -48 -56 -15 -72 -39 -72 -112 0 -49 1 -51 33 -60 l32 -10 3 -221
2 -222 -35 -35 c-30 -30 -35 -42 -35 -80 0 -32 6 -52 23 -71 l23 -27 -83 -706
c-45 -389 -82 -717 -82 -728 -1 -19 -9 -23 -58 -29 -107 -12 -197 -37 -278
-75 -82 -38 -151 -86 -110 -76 70 17 219 28 303 23 117 -7 215 -34 423 -115
308 -121 451 -152 729 -159 221 -5 322 7 451 56 208 79 356 270 383 494 4 31
4 57 -1 57 -4 0 -19 -21 -33 -47 -57 -107 -187 -217 -330 -280 -95 -42 -108
-42 -115 0 -2 17 -45 382 -95 810 -89 772 -89 778 -70 797 15 15 20 34 20 76
0 49 -3 59 -30 82 l-30 26 0 227 0 227 30 7 c30 7 30 7 30 75 0 75 -4 81 -66
93 -18 3 -62 29 -98 56 -65 50 -121 72 -214 86 -27 4 -56 18 -77 36 -18 16
-37 29 -43 29 -12 0 -17 31 -33 185 -6 61 -13 112 -15 114 -2 2 -4 0 -4 -5z
m-242 -716 c14 -14 17 -335 3 -356 -5 -9 -29 -12 -82 -10 l-74 3 -3 174 c-2
119 1 178 9 187 14 18 130 19 147 2z m301 3 c10 -7 14 -49 15 -187 l1 -179
-67 -3 -68 -3 0 191 0 190 53 0 c28 0 58 -4 66 -9z m341 -181 l0 -190 -74 0
c-58 0 -75 3 -80 16 -3 9 -6 87 -6 174 0 190 0 190 96 190 l64 0 0 -190z
m-302 -774 c100 -36 133 -86 162 -246 11 -62 20 -115 20 -117 0 -2 -124 -3
-276 -3 l-275 0 6 48 c13 89 37 196 50 222 46 89 200 136 313 96z m22 -961
c49 -24 108 -83 120 -119 10 -32 40 -209 40 -237 0 -15 -11 -14 -112 7 -62 13
-180 43 -263 67 l-150 43 2 52 c4 94 61 167 155 198 55 18 162 12 208 -11z"/>
</g>
</svg>
